<svg width="194" height="30" viewBox="0 0 194 30" fill="none" xmlns="http://www.w3.org/2000/svg">
<rect x="12" y="14" width="182" height="3" fill="#D9D9D9"/>
<circle cx="95" cy="15" r="15" fill="#079F32"/>
<circle cx="179" cy="15" r="15" fill="#D9D9D9"/>
<circle cx="15" cy="15" r="15" fill="#079F32"/>
<path d="M11.81 10.75V8.878H15.554V22H13.484V10.75H11.81Z" fill="white"/>
<path d="M92.214 19.21C93.366 18.214 94.272 17.398 94.932 16.762C95.604 16.114 96.162 15.442 96.606 14.746C97.05 14.05 97.272 13.354 97.272 12.658C97.272 11.938 97.098 11.374 96.75 10.966C96.414 10.558 95.88 10.354 95.148 10.354C94.44 10.354 93.888 10.582 93.492 11.038C93.108 11.482 92.904 12.082 92.88 12.838H90.9C90.936 11.47 91.344 10.426 92.124 9.706C92.916 8.974 93.918 8.608 95.13 8.608C96.438 8.608 97.458 8.968 98.19 9.688C98.934 10.408 99.306 11.368 99.306 12.568C99.306 13.432 99.084 14.266 98.64 15.07C98.208 15.862 97.686 16.576 97.074 17.212C96.474 17.836 95.706 18.562 94.77 19.39L93.96 20.11H99.666V21.82H90.918V20.326L92.214 19.21Z" fill="white"/>
<path d="M175.044 12.118C175.116 11.002 175.542 10.132 176.322 9.508C177.114 8.884 178.122 8.572 179.346 8.572C180.186 8.572 180.912 8.722 181.524 9.022C182.136 9.322 182.598 9.73 182.91 10.246C183.222 10.762 183.378 11.344 183.378 11.992C183.378 12.736 183.18 13.372 182.784 13.9C182.388 14.428 181.914 14.782 181.362 14.962V15.034C182.07 15.25 182.622 15.646 183.018 16.222C183.414 16.786 183.612 17.512 183.612 18.4C183.612 19.108 183.45 19.738 183.126 20.29C182.802 20.842 182.322 21.28 181.686 21.604C181.05 21.916 180.288 22.072 179.4 22.072C178.104 22.072 177.036 21.742 176.196 21.082C175.368 20.41 174.924 19.45 174.864 18.202H176.844C176.892 18.838 177.138 19.36 177.582 19.768C178.026 20.164 178.626 20.362 179.382 20.362C180.114 20.362 180.678 20.164 181.074 19.768C181.47 19.36 181.668 18.838 181.668 18.202C181.668 17.362 181.398 16.768 180.858 16.42C180.33 16.06 179.514 15.88 178.41 15.88H177.942V14.188H178.428C179.4 14.176 180.138 14.014 180.642 13.702C181.158 13.39 181.416 12.898 181.416 12.226C181.416 11.65 181.23 11.194 180.858 10.858C180.486 10.51 179.958 10.336 179.274 10.336C178.602 10.336 178.08 10.51 177.708 10.858C177.336 11.194 177.114 11.614 177.042 12.118H175.044Z" fill="black"/>
</svg>
